HIERARCHY
ROOT pelvis
{
  OFFSET 0 100 0
  CHANNELS 6 Xposition Yposition Zposition Zrotation Xrotation Yrotation
  JOINT pelvis_right_femur
  {
    OFFSET -10.78128 -3.44521 -0.5502486
    CHANNELS 3 Zrotation Xrotation Yrotation
    JOINT right_femur_tibia
    {
      OFFSET -0.8047443 -44.0398 -0.1307829
      CHANNELS 3 Zrotation Xrotation Yrotation
      JOINT right_tibia_foot
      {
        OFFSET 3.006224 -47.83518 -5
        CHANNELS 3 Zrotation Xrotation Yrotation
        End Site
        {
          OFFSET 0 -5 15
        }
      }
    }
  }
  JOINT pelvis_left_femur
  {
    OFFSET 10.78128 -3.44521 -0.5502486
    CHANNELS 3 Zrotation Xrotation Yrotation
    JOINT left_femur_tibia
    {
      OFFSET 0.8047443 -44.0398 -0.1307829
      CHANNELS 3 Zrotation Xrotation Yrotation
      JOINT left_tibia_foot
      {
        OFFSET -4.370144 -48.10324 -4.275266
        CHANNELS 3 Zrotation Xrotation Yrotation
        End Site
        {
          OFFSET 0 -5 15
        }
      }
    }
  }
  JOINT pelvis_spine1
  {
    OFFSET 0 6.468898 -3.129235
    CHANNELS 3 Zrotation Xrotation Yrotation
    JOINT spine1
    {
      OFFSET 0 23.15396 4.99043
      CHANNELS 3 Zrotation Xrotation Yrotation
      JOINT spine2
      {
        OFFSET 0 20.79997 -5.064912
        CHANNELS 3 Zrotation Xrotation Yrotation
        JOINT neck
        {
          OFFSET 0 14.38658 9.616178
          CHANNELS 3 Zrotation Xrotation Yrotation
          End Site
          {
            OFFSET 0 20 0
          }
        }
      }
      JOINT right_manubrium
      {
        OFFSET -5.722621 16.35077 3.967754
        CHANNELS 3 Zrotation Xrotation Yrotation
        JOINT right_clavicle
        {
          OFFSET -13.16364 1.694482 -4.693211
          CHANNELS 3 Zrotation Xrotation Yrotation
          JOINT right_humerus
          {
            OFFSET -28.5034 -0.3100689 -2.792744
            CHANNELS 3 Zrotation Xrotation Yrotation
            JOINT right_radius
            {
              OFFSET -25.15693 0.02248979 -1.271978
              CHANNELS 3 Zrotation Xrotation Yrotation
              End Site
              {
                OFFSET -15 0 0
              }
            }
          }
        }
      }
      JOINT left_manubrium
      {
        OFFSET 5.722621 16.35077 3.967754
        CHANNELS 3 Zrotation Xrotation Yrotation
        JOINT left_clavicle
        {
          OFFSET 13.16364 1.694482 -4.693211
          CHANNELS 3 Zrotation Xrotation Yrotation
          JOINT left_humerus
          {
            OFFSET 29.39168 -1.063119 -2.237045
            CHANNELS 3 Zrotation Xrotation Yrotation
            JOINT left_radius
            {
              OFFSET 24.59957 -0.9528479 0.9047498
              CHANNELS 3 Zrotation Xrotation Yrotation
              End Site
              {
                OFFSET 15 -0 -0
              }
            }
          }
        }
      }
    }
  }
}
MOTION
Frames: 7
Frame Time: 0.0416666666667
1001.975 99.6018 3004.337 3.699091 -2.43601 36.88739 0.5271477 -26.36494 1.287797 -0 9.254686 -0 1.813593 -0.556796 -8.335127 -5.123301 18.09751 -7.577413 -0 18.3317 -0 -5.986043 -19.04965 11.48421 0.266692 -2.555642 2.973298 1.749778 12.75259 -8.110932 1.489509 23.6101 6.003385 0.9147707 -24.40406 8.542079 -6.262371 -19.48055 11.23437 101.0899 11.91383 -26.39449 -0 0 0.9402035 -19.88133 6.703249 9.146663 4.689572 -29.53881 -8.187589 -83.21448 20.8829 9.219225 0 0 -36.06466 9.041177 14.9348 5.498016
1005.98 98.7776 3010.393 3.316131 -2.45046 37.23034 1.883167 -25.24545 2.514693 -0 9.133317 -0 1.963556 0.3194347 -8.532604 -4.609905 19.17086 -7.329552 -0 24.47491 -0 -7.73297 -17.16059 11.09616 0.2956994 -2.535688 2.90629 1.783625 12.67307 -8.17295 1.46987 23.64384 6.080292 0.9562424 -24.4071 8.57693 -6.274885 -19.1976 11.26262 101.2692 11.9495 -26.7964 -0 0 0.4535161 -19.79479 6.630966 8.906123 4.822185 -29.74031 -8.167711 -82.8793 20.72951 8.474882 0 0 -36.82733 9.320659 15.00522 5.082273
1010.025 98.56835 3016.718 3.102321 -3.187657 37.35527 3.631326 -22.76134 4.11749 -0 12.03518 -0 1.727672 0.3337505 -8.745257 -3.885683 18.82428 -7.128042 -0 32.3216 -0 -9.020199 -14.43198 11.58383 0.3846531 -2.561063 2.986803 1.731329 12.79318 -8.179531 1.494809 23.5232 5.968059 0.9423299 -24.29549 8.47851 -6.278773 -19.35858 11.29827 101.2153 12.10135 -26.6993 -0 0 0.8571124 -19.8856 6.894538 8.915198 4.809457 -29.66319 -8.190996 -82.90038 20.3596 8.722158 0 0 -36.85113 9.372491 15.042 4.833822
1014.009 99.01153 3023.073 3.343595 -4.581118 37.16967 5.191219 -18.92104 5.520649 -0 16.12429 -0 1.080011 -0.8911605 -8.906478 -3.194419 16.72507 -7.006673 -0 41.14892 -0 -9.604248 -11.56104 12.93528 0.5250446 -2.63348 3.207259 1.617534 13.08401 -8.143207 1.557231 23.26835 5.67803 0.8507246 -24.10191 8.268843 -6.296186 -19.94195 11.33462 100.966 12.30055 -26.14959 -0 0 2.057095 -20.10298 7.445193 9.159599 4.638762 -29.34178 -8.244447 -83.25683 19.8722 9.914974 0 0 -36.19166 9.162804 15.04534 4.853725
1017.841 99.9928 3029.197 4.118693 -6.194665 36.67738 5.996726 -13.90326 6.268668 -0 19.31135 -0 0.1819029 -3.218368 -8.821463 -2.80901 12.68792 -6.990957 -0 49.62584 -0 -9.535443 -9.285912 14.76695 0.6955329 -2.744595 3.540747 1.472958 13.48497 -8.072178 1.642101 22.92022 5.252777 0.6737098 -23.85914 7.987418 -6.333482 -20.86527 11.36328 100.5635 12.48646 -25.22841 -0 0 3.861605 -20.38413 8.199752 9.613484 4.31821 -28.83063 -8.303124 -83.89852 19.37615 11.89125 0 0 -34.95932 8.688436 15.01205 5.22337
1021.479 101.2697 3034.915 5.140367 -7.344143 35.99149 5.863136 -8.237633 6.355059 -0 20.15781 -0 -0.4831818 -5.964777 -8.254456 -2.79538 6.800111 -6.986636 -0 55.98251 -0 -9.136957 -7.986781 16.4335 0.871371 -2.882197 3.949594 1.322534 13.93179 -7.971358 1.733993 22.52257 4.74943 0.421814 -23.59781 7.676917 -6.386272 -22.01783 11.3773 100.0498 12.61753 -24.03229 -0 0 6.048863 -20.6847 9.069179 10.24621 3.877226 -28.18941 -8.342565 -84.76496 18.95053 14.42862 0 0 -33.29937 7.975683 14.93251 5.972119
1024.953 102.5296 3040.225 5.9146 -7.598919 35.22209 5.16186 -2.710407 6.193591 -0 18.60151 -0 -0.3552657 -8.168737 -7.202902 -2.804756 -0.3544321 -6.711253 -0 58.58778 -0 -8.81426 -7.512158 17.48806 1.032182 -3.036562 4.397763 1.181363 14.37602 -7.845429 1.821989 22.10845 4.21986 0.1165459 -23.34701 7.370325 -6.450237 -23.29738 11.37113 99.46288 12.66925 -22.65193 -0 0 8.429741 -20.98743 9.979173 11.02584 3.356435 -27.47048 -8.34585 -85.80477 18.63494 17.31501 0 0 -31.35833 7.063355 14.79078 7.082425
